<?xml version="1.0" standalone="no"?>
<!DOCTYPE svg PUBLIC "-//W3C//DTD SVG 20010904//EN" "http://www.w3.org/TR/2001/REC-SVG-20010904/DTD/svg10.dtd">
<svg version="1.0" xmlns="http://www.w3.org/2000/svg"
    width="66.000000pt" height="66.000000pt" viewBox="0 0 66.000000 66.000000"
    preserveAspectRatio="xMidYMid meet">

    <circle cx="50%" cy="50%" r="60%" stroke="black"
        stroke-width="0" fill="#fff" />

    <g transform="translate(0.000000,66.000000) scale(0.100000,-0.100000)"
        fill="#000000" stroke="none">
        <path
            d="M292 522 c-166 -96 -182 -108 -165 -120 45 -34 45 -34 234 75 101 58
188 109 193 113 9 9 -44 41 -66 39 -7 0 -95 -49 -196 -107z" />
        <path
            d="M379 472 c-102 -59 -193 -113 -202 -121 -15 -11 -17 -36 -17 -167 0
-98 4 -154 10 -154 6 0 68 33 138 74 l127 74 5 -31 6 -32 26 50 c18 34 39 57
66 73 22 12 43 29 46 38 3 9 6 81 6 160 0 109 -3 144 -12 144 -7 0 -97 -49
-199 -108z m156 -2 c-8 -13 -86 -53 -92 -47 -4 5 75 54 90 56 5 1 5 -4 2 -9z
m-115 -70 c-8 -5 -17 -7 -19 -4 -3 3 1 9 9 14 8 5 17 7 19 4 3 -3 -1 -9 -9
-14z m-41 -24 c-18 -15 -171 -97 -175 -93 -3 2 34 27 83 55 48 28 90 49 92 46
2 -2 2 -6 0 -8z m113 -14 c-33 -25 -169 -97 -155 -82 16 17 155 99 168 99 6 0
0 -7 -13 -17z m-182 -100 c0 -10 -54 -42 -72 -42 -7 0 5 11 27 25 46 28 45 28
45 17z m135 -8 c-34 -26 -146 -86 -151 -81 -6 5 146 96 161 96 6 0 1 -6 -10
-15z" />
        <path
            d="M77 386 c-6 -15 3 -26 42 -46 19 -10 25 -10 32 1 14 22 11 27 -21 44
-36 19 -46 19 -53 1z" />
        <path d="M72 216 l3 -137 33 -21 33 -20 -3 138 -3 138 -33 19 -33 19 3 -136z" />
        <path d="M401 143 l-25 -20 23 -12 c28 -15 33 -11 29 24 l-3 27 -24 -19z" />
    </g>
</svg>